<?xml version="1.0" encoding="utf-8"?>
<!-- Generator: Adobe Illustrator 24.1.1, SVG Export Plug-In . SVG Version: 6.00 Build 0)  -->
<svg version="1.1" id="Calque_1" xmlns="http://www.w3.org/2000/svg" xmlns:xlink="http://www.w3.org/1999/xlink" x="0px" y="0px"
	 viewBox="0 0 512 512" style="enable-background:new 0 0 512 512;" xml:space="preserve">
<style type="text/css">
	.st0{fill:#F45858;}
	.st1{fill:#3EA2E5;}
	.st2{fill:#DFEEF4;}
	.st3{fill:#6D7A84;}
</style>
<g>
	<path class="st0" d="M122.1,145c7.9-7.3,16.4-13.9,25.3-19.8l0.3-0.3L119,88l-26,20.3l28.8,36.9L122.1,145z"/>
	<path class="st0" d="M389.8,144.9l0.4,0.3l28.9-36.8L393.2,88l-28.9,36.8l0.3,0.3C373.5,131,382,137.6,389.8,144.9L389.8,144.9z"/>
	<circle class="st1" cx="256" cy="289.5" r="197.3"/>
	<circle class="st2" cx="256" cy="289.5" r="151.6"/>
	
		<ellipse transform="matrix(7.088906e-02 -0.9975 0.9975 7.088906e-02 -50.9073 524.3224)" class="st0" cx="256" cy="289.5" rx="25" ry="25"/>
	<path class="st0" d="M218.3,25.2h75.4v33h-75.4L218.3,25.2z"/>
	<path class="st0" d="M239.5,58.2v34.7h0.8c5.2-0.4,10.4-0.7,15.7-0.7c5.3,0,10.5,0.3,15.7,0.7h0.8V58.2H239.5z"/>
	<g>
		<path class="st3" d="M263,138v24.9c0,3.9-3.1,7-7,7s-7-3.1-7-7V138c2.3-0.1,4.6-0.2,7-0.2C258.4,137.8,260.7,137.9,263,138z"/>
		<path class="st3" d="M263,416.1V441c-2.3,0.1-4.6,0.2-7,0.2s-4.7,0-7-0.2v-24.8c0-3.9,3.1-7,7-7S263,412.3,263,416.1z"/>
		<path class="st3" d="M407.6,289.5c0,2.4,0,4.7-0.2,7h-24.9c-3.9,0-7-3.1-7-7s3.1-7,7-7h24.9C407.6,284.8,407.6,287.1,407.6,289.5z
			"/>
		<path class="st3" d="M136.4,289.5c0,3.9-3.1,7-7,7h-24.9c-0.1-2.3-0.2-4.6-0.2-7s0-4.7,0.2-7h24.9
			C133.3,282.5,136.4,285.6,136.4,289.5z"/>
		<path class="st3" d="M195.5,186.3c-1.1,0.6-2.3,1-3.5,1c-2.5,0-4.8-1.3-6-3.4l-12.6-21.5c3.9-2.6,7.9-4.9,12.1-7.1l12.6,21.5
			C200,180.1,198.8,184.3,195.5,186.3z"/>
		<path class="st3" d="M338.6,416.7c-3.9,2.5-7.9,4.9-12.1,7L314,402.3c-1.9-3.4-0.8-7.6,2.5-9.6c3.3-1.9,7.6-0.8,9.5,2.5
			c0,0,0,0,0,0L338.6,416.7z"/>
		<path class="st3" d="M390.2,218.9l-21.5,12.6c-3.3,2-7.6,0.8-9.6-2.5c-2-3.3-0.8-7.6,2.5-9.6l0,0l21.5-12.6
			C385.7,210.8,388.1,214.8,390.2,218.9z"/>
		<path class="st3" d="M150.3,359.6l-21.5,12.6c-2.6-3.9-4.9-7.9-7.1-12.1l21.5-12.6c3.3-2,7.6-0.8,9.6,2.5
			C154.8,353.3,153.7,357.6,150.3,359.6z"/>
		<path class="st3" d="M337.9,161.8l-12.4,21.6c-1.3,2.2-3.6,3.5-6.1,3.5c-1.2,0-2.4-0.3-3.5-1c-3.3-1.9-4.5-6.1-2.6-9.5
			c0,0,0,0,0-0.1l12.4-21.6C330,157,334,159.3,337.9,161.8z"/>
		<path class="st3" d="M198.6,402.6l-12.4,21.5c-4.2-2.1-8.2-4.5-12.1-7l12.4-21.6c1.9-3.3,6.2-4.5,9.6-2.5
			C199.4,395,200.6,399.3,198.6,402.6L198.6,402.6z"/>
		<path class="st3" d="M390.6,359.3c-2.2,4.2-4.5,8.2-7,12.1L362.1,359c-3.3-2-4.3-6.3-2.3-9.6c1.9-3.2,6.1-4.3,9.3-2.5L390.6,359.3
			z"/>
		<path class="st3" d="M152.5,229.6c-1.3,2.2-3.6,3.5-6.1,3.5c-1.2,0-2.4-0.3-3.5-1l-21.6-12.4c2.1-4.2,4.5-8.2,7-12.1l21.6,12.4
			C153.3,222,154.4,226.2,152.5,229.6z"/>
		<path class="st3" d="M354.6,282.5H281c-0.3,0-0.7,0-1,0.1c1.3,4.5,1.3,9.3,0,13.8c0.3,0.1,0.7,0.1,1,0.1h73.6c3.9,0,7-3.1,7-7
			S358.5,282.5,354.6,282.5L354.6,282.5z"/>
		<path class="st3" d="M256,264.5c2.3,0,4.7,0.3,6.9,1c0.1-0.3,0.1-0.7,0.1-1v-73.6c0-3.9-3.1-7-7-7s-7,3.1-7,7v73.6
			c0,0.3,0,0.7,0.1,1C251.3,264.9,253.7,264.5,256,264.5z"/>
	</g>
</g>
</svg>
